<?xml version="1.0" encoding="UTF-8"?>
<svg id="Capa_1" data-name="Capa 1" xmlns="http://www.w3.org/2000/svg" viewBox="0 0 1079 1080">
  <defs>
    <style>
      .cls-1 {
        fill: #fff;
      }
    </style>
  </defs>
  <path class="cls-1" d="m593.24,455.94c-49.75,0-90.23,40.48-90.23,90.23s40.48,90.23,90.23,90.23,90.23-40.48,90.23-90.23-40.48-90.23-90.23-90.23Zm0,154.86c-35.64,0-64.63-28.99-64.63-64.63s28.99-64.63,64.63-64.63,64.63,28.99,64.63,64.63-28.99,64.63-64.63,64.63Z"/>
  <path class="cls-1" d="m404.23,455.94c-49.75,0-90.23,40.48-90.23,90.23,0,3.9-.05,145.99-.05,145.99,0,7.13,5.8,12.93,12.93,12.93s13.76-6.04,13.76-12.93v-82c16.85,16.76,39.6,26.23,63.59,26.23,49.75,0,90.23-40.48,90.23-90.23s-40.48-90.23-90.23-90.23Zm0,154.86c-35.64,0-64.63-28.99-64.63-64.63s28.99-64.63,64.63-64.63,64.63,28.99,64.63,64.63-28.99,64.63-64.63,64.63Z"/>
  <path class="cls-1" d="m852.78,503.64c-6.65-16.24-21.37-37.37-53.71-45.81-.11-.03-.23-.05-.34-.07-6.82-1.19-13.52-1.79-19.91-1.79-26.03,0-43.31,9.63-53.69,18.47v-4.51c0-7.71-6.28-13.99-13.99-13.99s-13.99,6.28-13.99,13.99v150.02c0,7.71,6.28,13.99,13.99,13.99s13.99-6.28,13.99-13.99v-95.89c0-5.61.91-9.33,1.7-11.49,5.03-10.9,17.96-28.99,48.39-28.99,1.74,0,3.53.06,5.33.18,34.92,2.29,48.93,24.64,50.4,44.8,1.44,19.74.69,75.4.52,86.53l-.22,5.16c0,.06,0,.12,0,.18,0,7.71,6.28,13.99,13.99,13.99h.23c7.71,0,13.99-6.28,13.99-13.99v-83.41c.04-1.4.28-16.39-6.68-33.38Z"/>
  <path class="cls-1" d="m285.58,510.16h-56.69c-7.6,0-13.77,6.18-13.77,13.77s6.18,13.77,13.77,13.77h42.36v52.22l-5.96,3.97c-12.92,7.7-27.5,11.76-42.17,11.76-47.86,0-86.81-41.45-86.81-92.4s38.94-92.4,86.81-92.4c15.75,0,31.2,4.58,44.69,13.25.54.4,14.05,8.6,14.05,8.6,1.33.39,2.69.59,4.05.59,5.66,0,9.41-3.43,10.18-4.21.76-.75,4.28-4.51,4.36-10.11.04-2.86-.84-7.2-5.29-11.62-3.2-3.19-7.67-6.46-13.31-9.75h0s-2.66-1.53-2.66-1.53c-4.87-2.8-10.19-5.32-15.82-7.5-1.25-.51-1.99-.8-1.99-.8,0,0-14.27-6.75-38.26-6.75-31.2,0-60.53,12.75-82.56,35.89-21.97,23.07-34.07,53.74-34.07,86.33s10.98,63.17,33.17,85.35c43.53,43.53,98.44,36.13,105.74,34.64,20.07-3.32,35.02-9.7,44.45-18.96.74-.7,1.42-1.33,2.02-1.91,5.98-5.62,7.4-6.96,7.4-11.39v-75.98c.03-.26.08-.63.08-1.08,0-7.6-6.18-13.77-13.77-13.77Z"/>
  <path class="cls-1" d="m856.94,428.95c-5.25-.73-10.11,2.94-10.83,8.2-.73,5.25,2.94,10.11,8.2,10.83,2.92.4,28.37,4.83,24.21,35.36-.72,5.26,2.96,10.1,8.22,10.82.44.06.88.09,1.31.09,4.73,0,8.85-3.49,9.51-8.31,5.44-39.87-24.18-54.71-40.61-56.99Z"/>
  <path class="cls-1" d="m862.44,400.14c-5.27-.77-10.12,2.88-10.88,8.13-.76,5.25,2.88,10.13,8.13,10.88,2.18.32,53.25,8.4,48.81,68.5-.39,5.29,3.58,9.9,8.87,10.29.24.02.48.03.72.03,4.98,0,9.2-3.85,9.57-8.9,5.74-77.75-64.51-88.82-65.22-88.92Z"/>
  <path class="cls-1" d="m866.05,370.62c-5.37-.41-9.84,3.63-10.21,8.91-.38,5.28,3.61,9.87,8.89,10.26,3.19.24,78.05,6.92,74.43,102.43-.2,5.3,3.93,9.76,9.24,9.96.13,0,.25,0,.37,0,5.14,0,9.4-4.07,9.59-9.24,4.33-114.48-91.34-122.26-92.31-122.32Z"/>
</svg>